<svg width="50" height="50" viewBox="0 0 50 50" fill="none" xmlns="http://www.w3.org/2000/svg">
<circle cx="25" cy="25" r="25" fill="#B75DF8"/>
<path d="M34.3159 14.6836C31.7006 16.0611 30.1023 20.1935 30.1023 20.1935V30.4479C30.1023 30.4479 30.8357 30.6397 31.7006 30.4479C34.4612 29.8357 38.6748 25.8564 40.8543 22.3362C43.2959 18.3925 43.3244 13.1531 43.3244 13.1531C43.3244 13.1531 37.2446 13.1411 34.3159 14.6836Z" fill="white" stroke="white"/>
<path d="M16.0083 14.5305C18.6237 15.908 20.2219 20.0404 20.2219 20.0404V30.2949C20.2219 30.2949 19.4885 30.4867 18.6237 30.2949C15.863 29.6827 11.6494 25.7033 9.46992 22.1831C7.02828 18.2395 6.99987 13 6.99987 13C6.99987 13 13.0796 12.988 16.0083 14.5305Z" fill="white" stroke="white"/>
<path d="M16.2991 35.4902L19.7862 32.123C19.7862 32.123 20.658 36.7146 25.3075 36.7146C29.957 36.7146 30.3929 32.123 30.3929 32.123L34.0253 35.4902C34.0253 35.4902 31.7006 41.0001 25.3075 41.0001C18.9144 41.0001 16.2991 35.4902 16.2991 35.4902Z" fill="white" stroke="white"/>
<ellipse cx="25.162" cy="22.0301" rx="3.92303" ry="4.1324" fill="white"/>
</svg>
