<svg width="24" height="17" viewBox="0 0 24 17" fill="none" xmlns="http://www.w3.org/2000/svg">
<path d="M9.6 12.1429L15.828 8.5L9.6 4.85714V12.1429ZM23.472 2.635C23.628 3.20571 23.736 3.97071 23.808 4.94214C23.892 5.91357 23.928 6.75143 23.928 7.48L24 8.5C24 11.1593 23.808 13.1143 23.472 14.365C23.172 15.4579 22.476 16.1621 21.396 16.4657C20.832 16.6236 19.8 16.7329 18.216 16.8057C16.656 16.8907 15.228 16.9271 13.908 16.9271L12 17C6.972 17 3.84 16.8057 2.604 16.4657C1.524 16.1621 0.828 15.4579 0.528 14.365C0.372 13.7943 0.264 13.0293 0.192 12.0579C0.108 11.0864 0.0719999 10.2486 0.0719999 9.52L0 8.5C0 5.84071 0.192 3.88571 0.528 2.635C0.828 1.54214 1.524 0.837857 2.604 0.534286C3.168 0.376429 4.2 0.267143 5.784 0.194286C7.344 0.109286 8.772 0.0728571 10.092 0.0728571L12 0C17.028 0 20.16 0.194286 21.396 0.534286C22.476 0.837857 23.172 1.54214 23.472 2.635Z" fill="white"/>
</svg>
