<svg width="50" height="39" viewBox="0 0 50 39" fill="none" xmlns="http://www.w3.org/2000/svg">
<path d="M37.0961 3.22463C33.6401 5.04487 31.5281 10.5055 31.5281 10.5055V24.0561C31.5281 24.0561 32.4972 24.3095 33.6401 24.0561C37.2881 23.2471 42.8561 17.9887 45.7361 13.337C48.9625 8.12571 49.0001 1.20215 49.0001 1.20215C49.0001 1.20215 40.9661 1.18633 37.0961 3.22463Z" fill="white" stroke="white"/>
<path d="M12.9039 3.02248C16.3599 4.84272 18.4719 10.3034 18.4719 10.3034V23.8539C18.4719 23.8539 17.5028 24.1074 16.3599 23.8539C12.7119 23.0449 7.14392 17.7865 4.26392 13.1348C1.03746 7.92357 0.99992 1 0.99992 1C0.99992 1 9.03388 0.984179 12.9039 3.02248Z" fill="white" stroke="white"/>
<path d="M13.2881 30.719L17.8961 26.2695C17.8961 26.2695 19.0481 32.3369 25.1921 32.3369C31.3361 32.3369 31.9121 26.2695 31.9121 26.2695L36.7121 30.719C36.7121 30.719 33.6401 37.9999 25.1921 37.9999C16.7441 37.9999 13.2881 30.719 13.2881 30.719Z" fill="white" stroke="white"/>
<ellipse cx="24.9999" cy="12.9324" rx="5.184" ry="5.46067" fill="white"/>
</svg>
