<svg width="26" height="26" viewBox="0 0 26 26" fill="none" xmlns="http://www.w3.org/2000/svg">
<path d="M13.0259 25C19.6519 25 25 19.6259 25 12.9741C25 6.34811 19.6519 1 13.0259 1M13.0259 25C6.37405 25 1 19.6259 1 12.9741C1 6.34811 6.37405 1 13.0259 1M13.0259 25V1M23.4121 7H2.59568M23.4789 18.8541H2.52886M1.06486 13H24.9351" stroke="white" stroke-width="0.5" stroke-linecap="round" stroke-linejoin="round"/>
<path d="M13.013 25C16.3263 25 19 19.6259 19 12.9741C19 6.34811 16.3263 1 13.013 1C9.6867 1 7 6.34811 7 12.9741C7 19.6259 9.6867 25 13.013 25Z" stroke="white" stroke-width="0.5" stroke-linecap="round" stroke-linejoin="round"/>
</svg>
